# xmcd CD database file
#
# Track frame offsets:
#	150
#	13690
#	31142
#	52508
#	73283
#	88682
#	101985
#	112198
#	141802
#	160586
#	176443
#	197506
#	222615
#	238904
#	261275
#	274511
#	288955
#
# Disc length: 4089 seconds
#
# Revision: 2
# Processed by: cddbd v1.5.1PL2 Copyright (c) Steve Scherf et al.
# Submitted via: CDex 1.51
#
DISCID=f70ff711
DTITLE=Blues Brews Barbeques - Volume 5
DYEAR=2006
DGENRE=Blues
TTITLE0=Cheryl Lescom - High Heeled Blues
TTITLE1=Loco Zydeco - I Wanna Take You To The Zydeco
TTITLE2=Jerome Godboo - The Night I Sleep Outside
TTITLE3=Bobby Rush - Night Fishin'
TTITLE4=Nathaniel Mayer and The Fabulous Shanks - Ride In My 225
TTITLE5=Watermelon Slim - Check Writing Woman
TTITLE6=Someday Baby - Running To The Judgement
TTITLE7=Chuck Jackson - House Of The Rising Sun
TTITLE8=Ila Vann - Don't You Believe It
TTITLE9=Mississippi Hippies - Rockalator
TTITLE10=Web's Jr. and The Honeywood Express - If You Don't Need Me
TTITLE11=Mel Brown - Ruby Mae
TTITLE12=Julian Fauth - Running
TTITLE13=Lil' Dave Thompson - I Got The Blues
TTITLE14=Robert Jones - Wade In The Water
TTITLE15=Agnostic Mountain Gospel Choir - Table O The Lord
TTITLE16=B3 Shufflers - Blues Brews and Barbeques 2006
EXTD=YEAR: 2006
EXTT0=
EXTT1=
EXTT2=
EXTT3=
EXTT4=
EXTT5=
EXTT6=
EXTT7=
EXTT8=
EXTT9=
EXTT10=
EXTT11=
EXTT12=
EXTT13=
EXTT14=
EXTT15=
EXTT16=
PLAYORDER=
